<svg version="1.2" xmlns="http://www.w3.org/2000/svg" viewBox="0 0 1280 600" width="1280" height="600">
	<title>Save Severed</title>
	<style>
		.s0 { fill: #00afe7 } 
		.s1 { fill: #ddaf63;stroke: #ddaf63;stroke-width: 17 } 
		.s2 { fill: #ddaf63;stroke: #ddaf63;stroke-width: 10 } 
		.s3 { fill: none;stroke: #b83a54;stroke-width: 0 } 
		.s4 { fill: none;stroke: #b83a54;stroke-width: 75 } 
		.s5 { fill: #b83a54;stroke: #b83a54;stroke-width: 7.7 } 
	</style>
	<path id="Save" class="s0" aria-label="Save"  d="m112.6 408.1v-64.3q0-4 1.3-5.1 1.3-1.1 5.2-1.4h4.5q6.1 0 7.4 2.5l0.6 8.3q1 8.1 5.6 17.7 4.6 9.5 13.6 16.7 16.8 13 41.6 13 22.6 0 32.6-13 10-13 10-28.2 0-13-6.5-23-6.5-10.2-16.7-15.1-5.2-2.5-31.2-8.9-25.8-6.3-31.7-9-15.2-6.8-25.8-20.9-10.5-14.1-10.5-33 0-26 17.1-42.3 17.3-16.4 45.8-16.4 33.2 0 53.6 23.3 8.7-20.7 10.3-22.3 1.3-1 3.7-1 4.6 0 4.6 6.9v64.2q-0.3 4.2-1.8 5.2-1.2 0.9-4.7 0.9h-3q-7.8 0-9.1-2.2-0.3-0.3-1.6-7.3-1.1-6.9-3.9-14.6-2.9-7.7-8.1-16-5.2-8.2-15.7-13.6-10.3-5.4-24.3-5.4-20.1 0-30.5 11.3-10.3 11.2-10.3 26.1 0 22.1 21.4 33.5 5.8 2.8 31.5 9 25.7 6.2 32.5 9.2 15.8 7.1 26.1 22.7 10.5 15.5 10.5 36 0 26.3-16.5 44.7-16.3 18.3-47.5 18.3-37.4 0-61.7-23.4-6.5 16.2-8.6 19.6-2 3.4-5 3.4-4.8 0.1-4.8-6.1zm177.1-39.3q0-8.7 3.6-16.8 3.8-8.2 13-16.3 9.4-8.1 28.4-13.2 19-5 46-5.3v-7.5l0.3-0.6q0-0.7 0-1.3 0-29.2-37.1-29.3-7.5 0-18.2 1.1 0 0.6 0 1.1 0.1 7-3.7 10.5-4.1 3.4-9.2 3.6-6.2 0-9.6-3.8-3.4-4-3.4-9.5 0-21.7 45.7-21.7 26.6 0 42.3 12.5 15.9 12.4 15.9 35.5 0 0.3-0.2 0.8-0.2 0.5-0.2 0.8v67.5q0 5.2 0.7 7.5 1.6 5.8 13.4 7.1 11.9 1.3 12.3 1.6 2.8 1.6 2.8 9.2 0 5.2-2.1 7-2 1.7-7.2 1.7h-5.9q-28.2-0.3-33.5-17.3-24.1 19.2-57.3 19.2-17.6 0-27.3-13.6-9.5-13.7-9.5-30.5zm22.8-0.6q0 11.1 9 18.4 9.1 7.1 21.8 7.1 5.8 0 11.7-1.2 5.9-1.3 11.9-4.5 6.2-3.3 10.1-10 4-6.6 4-16 0-0.9-0.2-2.4-0.1-1.5-0.1-2.2v-23.6q-35.4 1.3-52 10.6-16.2 8.9-16.2 23.8zm143.8-87h-25.1v-18.9h68.5v18.9h-21.7l28.9 84.3 5.5 18.2 4.9-15.2 29.8-87.3h-21.7v-18.9h65.9v18.9h-25q-1.9 6.8-6.5 19.3-4.6 12.5-5.5 15.1l-30.2 87.3q-2.2 6.2-4.4 7.8-2.1 1.6-7.6 1.6h-1.3q-5.8 0-8.4-1.9-2.4-1.9-4.6-8.8l-29.3-84.8q-9.7-27.9-12.2-35.6zm142.3 54.2q0-34.1 18.4-54.9 18.4-20.7 48.2-20.7 16.5 0 28.5 6 12.1 5.9 18.3 16 6.2 10 8.7 20.8 2.7 10.8 2.7 22.3 0 5.3-2.4 6.7-2.2 1.4-6.3 1.4h-91.7q0 17.3 4.6 29.5 4.8 12.2 12.9 18.5 8.2 6.2 17.1 9.1 9 2.7 19.3 2.7 18.9 0 26.7-21.4 1.9-4.3 3.5-5.6 1.7-1.2 6.5-1.2h1.4q8.1 0 8.1 5.8 0 11.1-15.6 26.7-15.3 15.5-38.6 15.5-29.8 0-50.1-20.3-20.2-20.3-20.2-56.9zm26.4-20.1h78.9q-5.2-36.7-38.4-36.7-33.1 0-40.5 36.7z"/>
	<g id="5">
		<path id="Layer 5" class="s1" d="m999.2 100.8l-27.1-38.6 192.1 0.7 1.2 41.8z"/>
		<path id="Shape 3" fill-rule="evenodd" class="s2" d="m1000.5 405.8q19.8 3.5 39.2-1.7 19.5-5.2 35.2-17.2 15.6-11.9 26.8-30.1 11.1-18.1 14.9-39.6 3.8-21.5-0.5-42.3-4.2-20.9-14.9-37.4-10.6-16.6-27.1-28.1-16.5-11.5-36.3-15-4.1-0.7-8.1-1.1l-7.1-53.9q12.2 0 24.5 2.1 29.7 5.3 54.5 22.6 24.8 17.3 40.7 42 15.9 24.7 22.3 56.1 6.4 31.3 0.7 63.6-5.6 32.2-22.4 59.4-16.8 27.3-40.2 45.1-23.3 17.9-52.6 25.7-29.3 7.9-59 2.7-25-4.4-47-17.8l23.3-47.5q14.8 9.2 33.1 12.4zm-46.9-183.8q-1.7 1.8-4.8 1.7c-1.8-0.3 13.8-24.8 12.6-26.3l4.9-7.5c43.1-17.9 6-5.7 6.3-7.4 0.2-1.8-7.5-8.8-6.3-10 17.1-15.7-5.5-20.4 15.9-26.9q1.3-0.4 2.6-0.8l7.1 53.2q-21.4 7.3-38.3 24z"/>
	</g>
	<g id="9">
		<path id="Layer 3" class="s3" d="m884 328.3c-67 0-121.1-58.4-121.1-130.7 0-72.2 54.1-130.6 121.1-130.6 66.9 0 121 58.4 121 130.6 0 72.3-54.1 130.7-121 130.7z"/>
		<path id="Layer 2" class="s3" d="m885.1 292.1c-39.1 0-70.8-40.2-70.8-90 0-49.7 31.7-89.9 70.8-89.9 39.2 0 70.9 40.2 70.9 89.9 0 49.8-31.7 90-70.9 90z"/>
		<path id="Shape 2" class="s4" d="m883.2 302.8c-50.6 0-91.5-45.9-91.5-102.7 0-56.8 40.9-102.7 91.5-102.7 50.6 0 91.4 45.9 91.4 102.7 0 56.8-40.8 102.7-91.4 102.7z"/>
		<path id="Layer 4" class="s5" d="m884 531.3l-44.3-62.7 115.8-256.4c5.3-12.7 2.3-22 8.4-25.8q9.2-5.7 15.2 3.1l14.4 21.2q6 8.7 5.3 26.8-0.7 18.1-8.7 37.2l-107.2 257.5"/>
	</g>
</svg>